<svg class="carrinho" width="83" height="78" viewBox="0 0 83 78" fill="none" xmlns="http://www.w3.org/2000/svg">
          <g filter="url(#filter0_dd_1_461)">
            <path d="M3.45837 3.25H17.2917L26.56 46.7675C26.8763 48.2638 27.7425 49.6079 29.007 50.5645C30.2715 51.5211 31.8537 52.0292 33.4767 52H67.0917C68.7147 52.0292 70.2969 51.5211 71.5614 50.5645C72.8259 49.6079 73.6921 48.2638 74.0084 46.7675L79.5417 19.5H20.75M34.5834 68.25C34.5834 70.0449 33.035 71.5 31.125 71.5C29.2151 71.5 27.6667 70.0449 27.6667 68.25C27.6667 66.4551 29.2151 65 31.125 65C33.035 65 34.5834 66.4551 34.5834 68.25ZM72.625 68.25C72.625 70.0449 71.0767 71.5 69.1667 71.5C67.2567 71.5 65.7084 70.0449 65.7084 68.25C65.7084 66.4551 67.2567 65 69.1667 65C71.0767 65 72.625 66.4551 72.625 68.25Z" stroke="#FF3B30" stroke-width="4" stroke-linecap="round" stroke-linejoin="round"/>
          </g>
          <defs>
            <filter id="filter0_dd_1_461" x="-4" y="0" width="91" height="86" filterUnits="userSpaceOnUse" color-interpolation-filters="sRGB">
              <feFlood flood-opacity="0" result="BackgroundImageFix"/>
              <feColorMatrix in="SourceAlpha" type="matrix" values="0 0 0 0 0 0 0 0 0 0 0 0 0 0 0 0 0 0 127 0" result="hardAlpha"/>
              <feOffset dy="4"/>
              <feGaussianBlur stdDeviation="2"/>
              <feComposite in2="hardAlpha" operator="out"/>
              <feColorMatrix type="matrix" values="0 0 0 0 0 0 0 0 0 0 0 0 0 0 0 0 0 0 0.25 0"/>
              <feBlend mode="normal" in2="BackgroundImageFix" result="effect1_dropShadow_1_461"/>
              <feColorMatrix in="SourceAlpha" type="matrix" values="0 0 0 0 0 0 0 0 0 0 0 0 0 0 0 0 0 0 127 0" result="hardAlpha"/>
              <feOffset dy="4"/>
              <feGaussianBlur stdDeviation="2"/>
              <feComposite in2="hardAlpha" operator="out"/>
              <feColorMatrix type="matrix" values="0 0 0 0 0 0 0 0 0 0 0 0 0 0 0 0 0 0 0.25 0"/>
              <feBlend mode="normal" in2="effect1_dropShadow_1_461" result="effect2_dropShadow_1_461"/>
              <feBlend mode="normal" in="SourceGraphic" in2="effect2_dropShadow_1_461" result="shape"/>
            </filter>
          </defs>
        </svg>